<?xml version="1.0" encoding="UTF-8"?>
<svg xmlns="http://www.w3.org/2000/svg" xmlns:xlink="http://www.w3.org/1999/xlink" width="60pt" height="60pt" viewBox="0 0 60 60" version="1.1">
<g id="surface1511047">
<path style=" stroke:none;fill-rule:nonzero;fill:rgb(100%,100%,100%);fill-opacity:1;" d="M 29.96875 1.972656 C 28.867188 1.988281 27.984375 2.898438 28 4 L 28 10 C 27.988281 10.722656 28.367188 11.390625 28.992188 11.753906 C 29.613281 12.121094 30.386719 12.121094 31.007812 11.753906 C 31.632812 11.390625 32.011719 10.722656 32 10 L 32 4 C 32.007812 3.460938 31.796875 2.9375 31.414062 2.558594 C 31.03125 2.175781 30.507812 1.964844 29.96875 1.972656 Z M 11.59375 9.597656 C 10.78125 9.597656 10.050781 10.09375 9.746094 10.847656 C 9.4375 11.601562 9.621094 12.464844 10.203125 13.03125 L 14.445312 17.273438 C 14.945312 17.796875 15.691406 18.007812 16.394531 17.824219 C 17.09375 17.640625 17.640625 17.09375 17.824219 16.394531 C 18.007812 15.691406 17.796875 14.945312 17.273438 14.445312 L 13.03125 10.203125 C 12.652344 9.816406 12.136719 9.597656 11.59375 9.597656 Z M 48.34375 9.597656 C 47.824219 9.613281 47.332031 9.832031 46.96875 10.203125 L 42.726562 14.445312 C 42.203125 14.945312 41.992188 15.691406 42.175781 16.394531 C 42.359375 17.09375 42.90625 17.640625 43.605469 17.824219 C 44.308594 18.007812 45.054688 17.796875 45.554688 17.273438 L 49.796875 13.03125 C 50.386719 12.457031 50.566406 11.578125 50.246094 10.816406 C 49.921875 10.058594 49.167969 9.574219 48.34375 9.597656 Z M 30 16 C 22.269531 16 16 22.269531 16 30 C 16 37.730469 22.269531 44 30 44 C 37.730469 44 44 37.730469 44 30 C 44 22.269531 37.730469 16 30 16 Z M 4 28 C 3.277344 27.988281 2.609375 28.367188 2.246094 28.992188 C 1.878906 29.613281 1.878906 30.386719 2.246094 31.007812 C 2.609375 31.632812 3.277344 32.011719 4 32 L 10 32 C 10.722656 32.011719 11.390625 31.632812 11.753906 31.007812 C 12.121094 30.386719 12.121094 29.613281 11.753906 28.992188 C 11.390625 28.367188 10.722656 27.988281 10 28 Z M 50 28 C 49.277344 27.988281 48.609375 28.367188 48.246094 28.992188 C 47.878906 29.613281 47.878906 30.386719 48.246094 31.007812 C 48.609375 31.632812 49.277344 32.011719 50 32 L 56 32 C 56.722656 32.011719 57.390625 31.632812 57.753906 31.007812 C 58.121094 30.386719 58.121094 29.613281 57.753906 28.992188 C 57.390625 28.367188 56.722656 27.988281 56 28 Z M 15.820312 42.121094 C 15.300781 42.136719 14.808594 42.355469 14.445312 42.726562 L 10.203125 46.96875 C 9.679688 47.46875 9.46875 48.214844 9.652344 48.917969 C 9.835938 49.617188 10.382812 50.164062 11.082031 50.347656 C 11.785156 50.53125 12.53125 50.320312 13.03125 49.796875 L 17.273438 45.554688 C 17.863281 44.980469 18.042969 44.101562 17.722656 43.339844 C 17.398438 42.582031 16.644531 42.097656 15.820312 42.121094 Z M 44.121094 42.121094 C 43.308594 42.121094 42.574219 42.613281 42.269531 43.367188 C 41.960938 44.121094 42.144531 44.988281 42.726562 45.554688 L 46.96875 49.796875 C 47.46875 50.320312 48.214844 50.53125 48.917969 50.347656 C 49.617188 50.164062 50.164062 49.617188 50.347656 48.917969 C 50.53125 48.214844 50.320312 47.46875 49.796875 46.96875 L 45.554688 42.726562 C 45.179688 42.339844 44.660156 42.121094 44.121094 42.121094 Z M 29.96875 47.972656 C 28.867188 47.988281 27.984375 48.898438 28 50 L 28 56 C 27.988281 56.722656 28.367188 57.390625 28.992188 57.753906 C 29.613281 58.121094 30.386719 58.121094 31.007812 57.753906 C 31.632812 57.390625 32.011719 56.722656 32 56 L 32 50 C 32.007812 49.460938 31.796875 48.9375 31.414062 48.558594 C 31.03125 48.175781 30.507812 47.964844 29.96875 47.972656 Z M 29.96875 47.972656 "/>
</g>
</svg>
